<?xml version="1.0" encoding="utf-8"?>
<!-- Generator: Adobe Illustrator 19.0.0, SVG Export Plug-In . SVG Version: 6.00 Build 0)  -->
<svg version="1.1" id="Layer_1" xmlns="http://www.w3.org/2000/svg" xmlns:xlink="http://www.w3.org/1999/xlink" x="0px" y="0px"
	 width="50px" height="50px" viewBox="0 0 50 50" style="enable-background:new 0 0 50 50;" xml:space="preserve">
<g id="XMLID_3_">
	<path id="XMLID_1_" d="M39.7,25.9c-0.7,0-1.3,0.6-1.3,1.3c0,7.4-6,13.4-13.4,13.4s-13.4-6-13.4-13.4c0-7,5.3-12.7,12.1-13.3v3
		c0,0.5,0.2,0.9,0.7,1.1c0.2,0.1,0.4,0.2,0.6,0.2c0.2,0,0.4-0.1,0.6-0.2l7.5-4.3c0.4-0.2,0.7-0.7,0.7-1.1s-0.2-0.9-0.7-1.1L25.6,7
		c-0.2-0.1-0.4-0.2-0.6-0.2h0c-0.2,0-0.4,0.1-0.6,0.2c-0.4,0.2-0.7,0.7-0.7,1.1v3.1C15.5,11.9,9,18.8,9,27.2c0,8.8,7.2,16,16,16
		s16-7.2,16-16C41,26.5,40.4,25.9,39.7,25.9L39.7,25.9z"/>
</g>
</svg>
