<?xml version="1.0" encoding="utf-8"?>
<!-- Generator: Adobe Illustrator 19.0.0, SVG Export Plug-In . SVG Version: 6.00 Build 0)  -->
<svg version="1.1" id="Layer_1" xmlns="http://www.w3.org/2000/svg" xmlns:xlink="http://www.w3.org/1999/xlink" x="0px" y="0px"
	 width="50px" height="50px" viewBox="0 0 50 50" style="enable-background:new 0 0 50 50;" xml:space="preserve">
<g id="XMLID_6_">
	<path id="XMLID_7_" d="M4.1,25c0.1,0.9,0.6,1.6,1.4,1.8l15.3,4.6L21.4,42c0,0.4,0.3,0.8,0.7,0.9c0.1,0,0.2,0.1,0.3,0.1
		c0.3,0,0.6-0.1,0.8-0.3l5.4-6l7.7,5.3c0.3,0.2,0.7,0.4,1.2,0.4c1,0,1.8-0.7,2-1.6l6.4-32.4c0.1-0.4-0.1-0.8-0.4-1
		C45.2,7,44.8,7,44.4,7.1L5.4,23C4.6,23.4,4.1,24.1,4.1,25L4.1,25z M23.4,39.4L23,32.7l3.9,2.7L23.4,39.4z M37.5,40.2l-13.9-9.7
		l19.6-18.9L37.5,40.2z M40.9,10.8L21.6,29.5L6.3,24.9L40.9,10.8z"/>
</g>
</svg>
